<?xml version="1.0" standalone="no"?>
<!DOCTYPE svg PUBLIC "-//W3C//DTD SVG 20010904//EN"
 "http://www.w3.org/TR/2001/REC-SVG-20010904/DTD/svg10.dtd">
<svg version="1.0" xmlns="http://www.w3.org/2000/svg"
 width="672.000000pt" height="392.000000pt" viewBox="0 0 672.000000 392.000000"
 preserveAspectRatio="xMidYMid meet">

<g transform="translate(0.000000,392.000000) scale(0.100000,-0.100000)"
fill="#000000" stroke="none">
<path d="M986 3895 c-9 -14 -24 -37 -33 -52 -11 -16 -13 -24 -5 -19 16 10 65
86 59 92 -2 3 -12 -7 -21 -21z"/>
<path d="M1553 3882 c-255 -154 -460 -397 -663 -787 -40 -77 -102 -196 -138
-265 -207 -396 -404 -640 -555 -690 -39 -12 -146 -10 -180 5 -15 6 -17 -1 -17
-83 l0 -91 46 -7 c143 -21 255 20 382 140 166 157 274 343 519 891 80 177 128
277 171 350 148 255 312 422 537 547 l50 28 -45 0 c-34 0 -59 -9 -107 -38z"/>
<path d="M1715 3880 c-96 -47 -141 -73 -164 -94 -10 -9 -21 -16 -24 -16 -8 0
-39 -25 -73 -58 -13 -13 -24 -21 -24 -18 0 3 -32 -30 -72 -72 -40 -42 -75 -79
-78 -82 -10 -10 -92 -134 -136 -206 -46 -75 -134 -254 -199 -404 -65 -148
-195 -418 -243 -503 -65 -117 -193 -287 -264 -351 -34 -31 -97 -73 -146 -97
-92 -46 -143 -53 -244 -36 l-48 8 0 -52 0 -52 108 6 c187 9 314 69 473 227
131 131 220 274 270 434 31 104 61 190 69 201 4 6 17 36 29 69 23 63 45 99 53
91 9 -9 33 36 68 125 18 47 39 92 46 100 7 8 16 29 20 45 20 81 170 316 269
419 36 38 70 77 76 87 5 11 14 19 20 19 10 0 69 43 113 83 11 9 31 17 45 17
26 0 25 -1 -11 -33 -20 -17 -57 -49 -83 -70 -25 -21 -43 -43 -40 -48 4 -5 -4
-13 -17 -18 -36 -14 -132 -110 -181 -181 -53 -78 -117 -195 -117 -214 0 -8 -4
-16 -9 -18 -8 -3 -111 -207 -111 -221 0 -3 -13 -34 -29 -69 -51 -109 -111
-251 -111 -261 0 -9 -58 -132 -131 -280 -23 -46 -36 -84 -32 -94 5 -13 2 -15
-11 -10 -11 4 -15 3 -10 -4 4 -6 2 -14 -4 -18 -14 -9 -82 -100 -82 -110 0 -5
-36 -46 -80 -92 -57 -59 -83 -80 -89 -71 -6 10 -11 9 -22 -4 -12 -16 -12 -17
1 -9 10 5 12 5 5 -3 -20 -21 -106 -60 -147 -67 -24 -4 -70 -16 -102 -27 -39
-13 -91 -20 -152 -21 l-94 -2 0 -86 0 -87 75 -11 c102 -15 229 -14 290 3 52
14 175 67 197 85 7 6 41 33 75 61 90 73 166 185 268 395 48 100 124 270 132
298 3 9 9 17 13 17 16 0 -32 -126 -121 -318 -16 -34 -29 -67 -29 -72 0 -6 -4
-10 -10 -10 -5 0 -10 -4 -10 -8 0 -8 -41 -84 -73 -137 -7 -11 -35 -49 -64 -86
-98 -123 -220 -207 -353 -240 -72 -19 -101 -21 -205 -15 -66 3 -135 9 -153 12
l-32 6 0 -45 c0 -45 1 -46 38 -54 54 -12 270 -7 322 6 150 40 291 120 376 214
138 154 264 403 381 757 40 123 116 287 211 460 45 82 103 173 107 168 1 -2
-1 -28 -6 -58 -21 -142 -22 -146 -5 -178 9 -17 16 -46 16 -64 1 -48 30 -100
63 -111 50 -16 102 21 190 136 43 57 96 136 118 177 22 41 49 86 59 100 10 14
27 49 38 78 23 61 88 152 105 148 7 -1 9 -1 5 1 -13 7 -9 16 18 48 17 20 27
26 32 18 5 -9 12 -6 21 8 7 12 8 18 2 14 -6 -3 -11 -2 -11 2 0 18 141 136 157
131 4 -2 9 0 11 5 1 4 12 17 24 29 20 20 32 23 97 21 79 -1 191 -21 191 -33 0
-4 -7 -13 -15 -20 -8 -7 -21 -24 -28 -39 -8 -14 -27 -51 -44 -82 -62 -117 -88
-215 -88 -327 0 -50 -2 -92 -5 -92 -3 0 -18 8 -35 18 -76 46 -133 33 -224 -53
-76 -72 -98 -85 -141 -85 -43 0 -47 -21 -20 -103 32 -92 71 -152 114 -174 l36
-18 -27 -38 c-31 -43 -51 -46 -81 -12 -22 25 -47 31 -68 17 -20 -13 -64 -84
-64 -103 0 -13 -7 -19 -24 -19 -31 0 -66 -43 -65 -79 l1 -26 7 25 c9 31 48 52
73 39 15 -8 20 -5 29 18 46 116 58 124 104 69 25 -30 36 -37 53 -31 12 3 22
10 22 15 0 18 62 80 80 80 30 0 68 -56 90 -133 25 -87 39 -117 56 -117 6 0 22
-8 35 -19 20 -16 23 -27 22 -87 -1 -80 -41 -218 -81 -279 -64 -100 -132 -173
-182 -194 -53 -23 -90 -27 -90 -10 0 6 -7 9 -15 5 -28 -10 -42 23 -69 166 -44
232 -56 280 -83 333 -14 27 -33 63 -41 80 -72 137 -255 191 -333 97 -43 -51
-67 -110 -78 -188 -5 -44 -15 -93 -21 -108 -15 -40 -12 -92 6 -128 l16 -31
-33 7 c-58 11 -132 -36 -203 -129 -41 -54 -81 -85 -110 -85 -15 0 -16 -3 -6
-15 22 -27 53 -16 90 31 72 93 121 141 160 159 40 18 42 18 86 -3 48 -24 81
-76 63 -99 -7 -7 -6 -13 3 -16 7 -2 3 -3 -8 -1 -12 2 -24 -2 -27 -10 -4 -10 0
-12 15 -8 18 4 18 3 8 -14 -19 -29 -110 -86 -110 -68 0 20 -13 18 -45 -8 -21
-17 -40 -22 -74 -20 -62 2 -102 12 -96 22 3 5 -4 8 -15 7 -27 -2 -25 -19 10
-85 40 -75 108 -135 182 -162 70 -26 78 -40 78 -144 0 -173 77 -276 208 -276
l50 0 11 -46 c13 -51 50 -94 81 -94 18 0 20 -6 20 -70 0 -39 -7 -112 -15 -163
-8 -50 -24 -180 -35 -287 -11 -107 -23 -201 -26 -209 -2 -8 -6 -54 -8 -103
l-3 -88 489 0 c269 0 487 4 484 9 -25 40 -64 719 -45 799 11 50 11 75 -1 67
-15 -10 -12 69 6 138 9 34 13 75 10 92 -15 74 -40 243 -40 275 0 19 3 66 8
105 7 59 6 67 -6 57 -8 -6 -46 -23 -84 -38 -54 -20 -78 -24 -113 -19 -107 16
-245 91 -277 150 -14 27 -14 33 0 59 8 17 24 35 35 40 10 6 55 43 98 83 96 86
134 153 169 291 39 157 31 223 -31 277 -23 20 -45 55 -65 103 -16 41 -39 87
-51 103 -11 16 -18 33 -14 38 3 6 28 24 55 42 l50 32 -1 56 c-1 31 -4 46 -6
33 -2 -12 -14 -27 -26 -34 -12 -6 -24 -14 -27 -17 -3 -3 -29 -26 -58 -50 l-53
-43 -44 17 c-53 20 -81 56 -106 137 -26 83 -25 95 12 103 18 4 61 36 107 79
42 39 92 78 109 85 42 17 91 8 136 -27 29 -22 36 -34 37 -62 0 -19 3 -45 6
-57 6 -21 3 -23 -35 -23 -22 0 -41 -4 -41 -8 0 -4 -31 -18 -70 -31 -57 -18
-76 -20 -107 -12 -52 15 -112 4 -110 -20 1 -10 10 -22 22 -27 55 -26 78 -32
101 -27 13 3 35 7 48 10 14 3 38 17 55 31 17 14 31 23 31 19 0 -4 8 -1 17 6
14 12 16 12 9 -1 -5 -9 -2 -9 7 2 7 10 26 22 41 28 24 9 29 8 33 -10 4 -13 11
-19 20 -16 8 3 18 6 23 6 5 0 8 84 7 188 -2 168 0 194 20 257 21 66 79 162 91
151 3 -3 12 3 19 14 14 20 15 20 42 1 18 -13 32 -17 42 -10 7 5 24 9 36 9 12
0 25 5 29 11 4 7 0 9 -14 5 -11 -4 -23 -3 -26 3 -4 5 14 9 41 9 82 0 93 2 93
17 0 26 49 28 146 5 52 -13 94 -27 94 -31 0 -5 11 -9 24 -9 14 0 31 -7 40 -15
8 -8 27 -15 43 -15 16 0 44 -8 63 -19 20 -10 47 -18 61 -18 32 0 86 -39 105
-75 16 -31 18 -68 4 -68 -5 0 -10 -11 -10 -25 0 -14 5 -25 10 -25 6 0 10 10
10 23 0 17 2 19 9 8 6 -9 6 -22 0 -32 -5 -10 -9 -27 -9 -38 0 -12 -4 -21 -9
-21 -8 0 -20 42 -27 99 -2 20 -46 71 -60 71 -2 0 -22 -23 -44 -51 -48 -61 -52
-99 -15 -123 14 -9 23 -21 20 -25 -3 -5 2 -11 10 -15 19 -7 20 -46 1 -46 -8 0
-18 -9 -21 -20 -3 -11 -15 -20 -26 -20 -10 0 -19 -4 -19 -10 0 -5 -12 -10 -27
-10 -39 -1 -117 -23 -136 -38 -27 -23 -86 -22 -130 0 -37 20 -40 20 -49 4 -9
-17 -11 -16 -29 3 -16 17 -33 21 -92 23 -40 1 -81 1 -92 0 -11 -1 -33 -2 -50
-3 -16 -1 -39 -6 -50 -12 -19 -10 -18 -12 10 -18 27 -5 28 -7 10 -14 -28 -12
-35 -25 -35 -68 l0 -39 31 26 c25 21 41 26 85 26 41 0 54 -4 54 -15 0 -8 -12
-18 -27 -21 -44 -11 -100 -42 -107 -59 -13 -35 -7 -41 51 -40 65 0 83 -19 33
-37 -23 -8 -28 -13 -18 -19 22 -15 117 -10 151 7 48 24 70 46 56 55 -8 4 -4
11 11 19 19 10 21 10 17 -7 -3 -10 -12 -43 -21 -73 -22 -81 -48 -101 -143
-110 l-78 -7 60 -2 60 -3 -53 -15 c-48 -14 -53 -18 -47 -40 3 -15 -3 -39 -20
-70 -50 -88 -43 -161 19 -228 l24 -25 6 24 c9 37 32 39 94 6 l57 -30 3 30 c3
28 22 44 22 18 0 -6 7 -3 16 8 10 13 17 15 20 7 3 -8 16 -10 33 -7 16 3 38 1
50 -6 17 -9 26 -9 37 0 19 17 44 5 44 -20 0 -12 -10 -25 -25 -32 -14 -6 -25
-16 -25 -21 0 -6 3 -7 6 -4 8 8 44 -11 44 -23 0 -5 -11 -12 -25 -16 -14 -3
-25 -10 -25 -15 0 -5 -13 -9 -28 -9 -15 0 -33 -5 -40 -12 -9 -9 -12 -9 -12 0
0 7 -9 10 -22 8 -13 -3 -26 -5 -30 -5 -4 -1 -5 -8 -2 -16 4 -10 0 -15 -14 -15
-24 0 -20 -30 6 -53 14 -12 111 -49 157 -60 17 -4 35 -18 35 -27 0 -14 -31
-21 -140 -34 -109 -12 -129 -8 -191 35 -10 7 -20 11 -24 10 -7 -3 -42 35 -48
52 -2 7 -7 9 -11 6 -9 -9 44 -100 55 -93 5 3 9 -1 9 -8 0 -14 30 -56 70 -97
14 -14 32 -38 40 -54 7 -15 36 -49 64 -76 78 -75 96 -97 96 -120 0 -26 22 -37
92 -46 42 -5 55 -11 51 -21 -18 -49 85 52 221 216 185 222 202 253 156 295
-16 14 -20 30 -19 74 1 31 4 67 8 80 l7 24 15 -24 c9 -13 24 -40 33 -59 l17
-35 -36 39 c-45 50 -44 42 1 -25 20 -30 49 -80 65 -111 l29 -58 -26 0 c-19 0
-25 -4 -20 -15 23 -62 36 -126 28 -142 -5 -10 -24 -81 -41 -158 -18 -77 -37
-153 -43 -170 -5 -16 -18 -64 -28 -105 -11 -41 -40 -133 -65 -205 -86 -241
-195 -586 -275 -875 -28 -102 -55 -195 -60 -207 l-10 -23 1220 0 1220 0 -6 88
c-7 85 -6 89 22 130 16 22 33 41 37 42 4 0 22 14 40 31 65 63 126 73 230 38
78 -26 139 -61 194 -112 69 -64 91 -134 47 -151 -8 -3 -12 -2 -9 4 3 5 -7 3
-22 -5 -15 -8 -39 -15 -53 -15 -23 0 -90 -33 -90 -45 0 -3 89 -5 198 -5 l199
0 -53 108 c-29 59 -69 156 -89 216 -55 167 -177 436 -235 521 -42 61 -110 128
-170 168 -98 64 -272 97 -397 74 -38 -6 -43 -5 -43 11 0 38 -33 112 -62 141
-43 42 -98 48 -223 27 -124 -20 -122 -20 -135 5 -9 16 -7 29 10 64 12 24 24
68 27 97 6 60 -2 85 -87 293 -40 98 -54 145 -58 197 -5 66 -4 69 37 131 41 64
52 107 27 107 -7 0 -19 -7 -27 -16 -26 -32 -99 -74 -148 -87 -36 -9 -77 -10
-148 -4 -106 8 -232 -4 -292 -29 -19 -8 -36 -13 -38 -11 -9 10 256 253 357
328 188 139 237 169 346 210 154 58 237 74 394 74 214 0 382 -50 445 -133 135
-175 151 -401 45 -618 -80 -164 -236 -260 -364 -224 -84 23 -126 87 -126 188
0 45 5 66 21 86 11 14 24 26 28 26 4 0 13 -22 19 -50 21 -88 75 -150 133 -150
57 0 119 75 119 142 0 43 -36 104 -82 141 -33 27 -45 30 -105 30 -78 0 -117
-16 -158 -65 -41 -49 -57 -94 -56 -163 1 -119 54 -213 145 -259 51 -26 64 -28
134 -24 100 6 162 37 251 126 82 82 125 156 151 257 43 166 37 298 -20 436
-16 40 -28 74 -27 76 8 7 128 -90 179 -145 115 -125 150 -258 115 -437 -20
-99 -23 -188 -12 -376 10 -183 -4 -253 -84 -415 -31 -62 -53 -110 -49 -108 3
2 8 -2 11 -8 2 -8 12 1 23 21 11 18 41 70 68 115 50 83 102 196 129 276 33
101 42 168 42 340 0 151 -3 186 -23 260 -68 254 -215 440 -437 553 -27 14 -68
44 -90 67 -22 23 -69 61 -105 84 l-65 41 110 11 c169 18 296 58 412 131 82 51
227 197 219 220 -3 8 -2 12 3 9 11 -7 58 90 76 160 18 70 19 206 2 254 -36
104 -92 148 -174 136 -56 -7 -120 -43 -150 -83 -25 -35 -53 -113 -53 -150 0
-51 38 -110 85 -133 58 -28 117 -15 179 40 l28 25 -7 -45 c-11 -67 -61 -197
-91 -239 -137 -185 -356 -292 -599 -293 -86 0 -114 4 -195 31 -52 17 -123 37
-157 43 -35 6 -63 15 -63 20 0 5 13 28 28 51 16 23 58 98 93 166 43 82 81 141
116 177 62 66 77 69 57 12 -37 -105 55 -175 155 -117 20 11 55 44 79 73 49 61
55 109 22 163 -36 60 -121 62 -206 7 -30 -20 -105 -98 -154 -159 l-32 -40 9
60 c15 112 9 244 -16 305 -41 101 -97 140 -199 140 -155 0 -322 -174 -322
-335 0 -52 4 -65 30 -97 32 -39 67 -50 113 -37 102 29 164 203 102 285 -27 36
-24 43 34 63 65 22 97 15 145 -31 46 -45 66 -102 66 -186 -1 -109 -78 -349
-148 -458 -27 -41 -28 -41 -99 -48 -144 -12 -250 -42 -388 -111 -71 -35 -157
-85 -190 -110 -77 -58 -193 -172 -260 -255 -115 -141 -239 -376 -296 -554 -17
-56 -34 -109 -38 -119 -6 -16 -10 -15 -49 10 -27 18 -40 33 -37 43 2 8 16 69
29 135 52 250 81 657 73 1005 -9 384 -67 669 -190 933 l-46 97 -260 0 c-144 0
-261 -3 -261 -6 0 -9 81 -103 172 -201 92 -98 151 -186 214 -320 102 -218 164
-456 195 -758 13 -129 13 -493 0 -527 -9 -21 -10 -21 -10 9 -1 45 -62 357 -71
363 -4 3 1 37 11 75 40 143 37 222 -7 245 -18 10 -32 11 -52 4 l-27 -10 -1
180 c-2 228 -14 278 -92 394 -32 47 -63 96 -71 109 -7 14 -22 28 -32 30 -11 3
-19 12 -19 19 0 8 -9 14 -20 14 -11 0 -20 5 -20 10 0 6 -11 15 -25 20 -14 5
-44 23 -68 40 -68 50 -117 80 -129 80 -6 0 -20 8 -30 17 -10 9 -43 20 -74 24
-42 6 -66 16 -100 44 -24 20 -83 61 -131 91 -84 53 -88 54 -161 54 l-75 0 79
-48 c98 -59 194 -129 194 -142 0 -22 -39 -7 -115 43 -187 125 -255 147 -448
147 -244 -1 -330 -33 -499 -189 -42 -40 -105 -106 -138 -149 -34 -42 -71 -87
-82 -100 -10 -13 -28 -38 -39 -55 -10 -18 -19 -27 -19 -20 0 6 26 51 59 100
100 152 278 317 423 395 l33 18 -90 0 c-84 -1 -95 -3 -170 -40z m469 -267
c-94 -50 -123 -63 -149 -63 -14 0 -24 -4 -21 -8 2 -4 -16 -19 -42 -32 -61 -32
-153 -130 -219 -234 -29 -44 -59 -90 -68 -101 -38 -47 -106 -165 -101 -174 10
-16 100 74 140 139 20 33 51 74 68 92 95 102 99 105 132 99 5 -1 6 5 3 14 -4
9 -1 15 8 15 18 0 19 -12 4 -27 -6 -6 -16 -21 -23 -32 -6 -12 -40 -69 -76
-128 -36 -60 -77 -133 -90 -163 -25 -56 -102 -177 -136 -216 -27 -30 -82 -56
-105 -49 -25 8 -37 33 -50 102 -6 32 -17 70 -25 85 -11 20 -11 33 -3 55 6 15
12 55 13 88 3 68 18 103 88 197 123 168 309 283 553 344 50 12 103 23 119 23
26 1 25 -1 -20 -26z m-171 -188 c-3 -9 -8 -14 -10 -11 -3 3 -2 9 2 15 9 16 15
13 8 -4z m-572 -62 c-12 -20 -14 -14 -5 12 4 9 9 14 11 11 3 -2 0 -13 -6 -23z
m2039 -395 c0 -10 4 -18 8 -18 8 0 25 -55 37 -117 5 -26 3 -33 -10 -33 -8 0
-17 6 -19 13 -2 6 -7 21 -12 32 -4 11 -8 31 -10 45 -6 62 -12 91 -18 97 -3 3
-6 13 -6 22 1 23 30 -17 30 -41z m-65 -88 c3 -5 2 -10 -4 -10 -5 0 -13 5 -16
10 -3 6 -2 10 4 10 5 0 13 -4 16 -10z m-410 -9 c-3 -5 -1 -12 4 -15 14 -9 25
-74 28 -166 1 -47 5 -103 8 -125 9 -59 -8 -94 -55 -112 -22 -9 -37 -20 -34
-24 2 -5 -21 3 -51 17 -53 25 -93 25 -50 1 18 -10 33 -24 98 -96 l22 -23 -32
5 c-18 4 -35 3 -37 -2 -3 -4 -38 -13 -79 -20 -61 -10 -78 -9 -101 3 -16 8 -23
17 -17 21 6 3 11 12 11 20 0 18 58 105 70 105 5 0 13 19 17 43 7 33 13 43 31
45 13 2 25 9 27 15 1 7 17 56 34 109 36 111 35 109 18 102 -10 -3 -14 6 -15
36 -1 29 2 39 10 34 7 -5 9 -2 5 8 -3 9 -3 19 0 22 10 10 95 7 88 -3z m465
-51 c15 -30 18 -45 11 -58 -9 -15 -10 -13 -11 9 0 14 -4 29 -9 35 -11 11 -24
54 -17 54 3 0 15 -18 26 -40z m-388 -15 c-2 -14 -6 -25 -8 -25 -2 0 -4 11 -4
25 0 14 4 25 9 25 4 0 6 -11 3 -25z m478 -13 c0 -15 -22 -30 -37 -25 -11 4
-10 8 4 19 21 15 33 18 33 6z m1765 -26 c59 -13 182 -70 260 -121 31 -20 34
-25 15 -20 -126 30 -193 37 -325 32 -133 -5 -155 -8 -319 -55 -10 -3 15 26 55
64 41 38 82 79 92 91 16 20 27 23 90 23 40 -1 99 -7 132 -14z m-287 -5 c-5
-13 -157 -150 -219 -198 -30 -22 -93 -65 -141 -95 -94 -57 -295 -207 -441
-328 -82 -68 -151 -140 -215 -225 -20 -27 -21 -28 -13 -5 149 405 497 725 911
836 93 25 123 29 118 15z m-1497 -47 c4 -16 7 -66 8 -112 2 -127 -35 -213 -50
-119 -7 44 -11 49 -42 51 -14 0 -23 6 -20 13 3 7 -3 10 -16 6 -30 -8 -26 11 6
28 20 11 27 11 30 2 3 -7 12 -13 20 -13 11 0 13 5 7 18 -11 23 -8 103 4 111 5
3 13 16 17 29 9 30 28 23 36 -14z m-336 -40 c20 -8 71 -18 114 -22 51 -5 75
-12 74 -20 -2 -7 2 -12 8 -12 5 0 7 -4 4 -10 -3 -6 1 -7 10 -3 10 3 12 8 7 12
-6 4 0 15 14 28 13 12 24 18 24 13 0 -4 -7 -13 -15 -20 -8 -7 -13 -16 -10 -20
2 -4 -2 -15 -9 -25 -16 -22 -51 -13 -42 10 3 8 0 15 -7 15 -8 0 -7 4 3 11 12
8 12 10 1 7 -15 -4 -24 -48 -9 -48 4 0 8 -4 8 -9 0 -5 -16 -5 -37 0 -21 4 -56
6 -78 4 -43 -4 -92 13 -114 38 -12 15 -11 17 3 17 19 0 22 36 4 43 -8 4 -9 6
-2 6 6 1 28 -6 49 -15z m-340 -44 c-9 -16 -20 -30 -26 -30 -6 0 -1 14 11 30
12 17 23 30 26 30 2 0 -2 -13 -11 -30z m442 -66 c-3 -3 -12 -4 -19 -1 -8 3 -5
6 6 6 11 1 17 -2 13 -5z m-144 -11 c-7 -2 -13 -18 -13 -34 0 -22 -4 -28 -17
-26 -24 3 -43 16 -43 28 0 9 56 37 75 37 6 0 4 -2 -2 -5z m211 -48 c6 -17 0
-20 -50 -29 -40 -6 -49 2 -27 26 20 22 69 24 77 3z m-1719 -76 c99 -47 154
-152 220 -423 55 -227 56 -254 13 -290 -17 -14 -39 -26 -47 -27 -11 0 -12 -2
-3 -6 19 -7 -3 -31 -46 -49 -75 -31 -190 -6 -242 53 -40 45 -69 108 -70 148 0
19 -19 59 -50 108 -59 92 -66 114 -50 161 6 20 17 79 25 132 11 80 19 104 46
145 18 26 42 52 54 58 34 17 103 12 150 -10z m-782 -4 c-3 -9 -8 -14 -10 -11
-3 3 -2 9 2 15 9 16 15 13 8 -4z m2654 -27 c-3 -7 -5 -2 -5 12 0 14 2 19 5 13
2 -7 2 -19 0 -25z m90 -30 c-3 -8 -6 -5 -6 6 -1 11 2 17 5 13 3 -3 4 -12 1
-19z m-2 -163 c14 -54 23 -100 21 -102 -2 -2 -14 26 -26 64 -13 37 -29 81 -37
96 -15 31 -10 68 7 51 6 -6 21 -55 35 -109z m-257 70 c-3 -3 -9 2 -12 12 -6
14 -5 15 5 6 7 -7 10 -15 7 -18z m222 -106 c34 -89 80 -244 80 -268 -1 -9 -10
11 -21 44 -48 143 -92 254 -98 251 -4 -3 -7 3 -8 12 -1 9 -5 31 -8 47 -6 29
-6 29 9 11 9 -11 29 -55 46 -97z m-470 61 c0 -11 -7 -20 -15 -20 -17 0 -18 2
-9 24 9 23 24 20 24 -4z m1690 -177 c0 -5 -7 -17 -15 -27 -20 -26 -19 -113 1
-184 14 -48 68 -188 104 -267 23 -51 27 -94 16 -146 -7 -31 -15 -48 -19 -39
-4 12 -6 12 -6 -2 -1 -26 -25 -22 -40 5 -14 26 -60 57 -86 57 -9 0 -23 15 -31
33 -20 42 -37 71 -53 90 -7 9 -15 31 -18 49 -3 18 -12 49 -20 68 -20 47 -19
181 2 196 9 6 15 26 14 45 0 19 -3 28 -6 22 -8 -20 -51 -15 -63 7 -14 26 17
46 85 53 28 3 44 3 38 0 -21 -8 -15 -33 7 -33 18 0 25 11 21 33 -1 5 9 17 21
27 23 20 48 26 48 13z m-3248 -406 c39 -30 93 -51 158 -62 51 -8 59 -17 60
-60 1 -37 24 -70 44 -62 22 9 45 48 52 88 4 27 3 31 -6 17 -21 -34 -56 -9 -43
30 3 6 13 12 23 12 10 0 23 12 30 30 16 38 27 45 47 29 14 -12 15 -10 9 17 -5
23 -2 34 12 47 18 17 20 16 32 -13 11 -27 14 -29 25 -14 16 22 22 11 34 -63 5
-34 17 -75 26 -92 13 -26 20 -30 39 -25 19 4 27 0 37 -17 10 -20 8 -25 -15
-46 -22 -19 -25 -26 -16 -43 6 -11 24 -23 41 -27 l31 -8 -42 -28 c-23 -15 -45
-27 -50 -27 -4 0 -11 30 -15 66 -4 36 -18 90 -32 120 -14 31 -27 73 -30 95 -3
22 -10 42 -16 46 -6 3 -7 -9 -4 -33 11 -70 14 -79 28 -102 12 -19 12 -26 -2
-50 -9 -15 -21 -26 -27 -24 -7 1 -12 -9 -12 -24 0 -20 4 -24 19 -19 14 4 22
-3 35 -29 30 -64 24 -75 -87 -148 -57 -38 -107 -68 -112 -68 -37 -2 -90 -92
-101 -173 -6 -42 -8 -44 -33 -38 -34 9 -82 98 -60 112 8 5 24 9 36 9 24 0 154
134 180 185 28 54 65 97 79 91 16 -6 17 16 7 178 -7 121 -22 129 -27 15 -4
-84 -13 -112 -32 -105 -7 3 -16 1 -19 -5 -4 -5 0 -12 8 -15 40 -15 -56 -179
-139 -237 -22 -15 -69 -39 -105 -53 l-64 -25 54 6 c30 3 64 11 75 17 18 10 19
9 9 -4 -40 -48 -187 -50 -247 -4 -56 43 -68 75 -77 219 -5 70 -16 154 -25 185
-37 129 -26 168 64 232 l56 40 27 -59 c16 -34 40 -69 61 -84z m-411 -10 c8
-11 128 -39 139 -32 9 6 24 -44 15 -53 -3 -3 -5 1 -5 9 0 12 -2 12 -9 0 -10
-16 -3 -51 12 -51 6 0 8 -2 6 -5 -10 -9 -84 18 -117 43 -30 23 -82 97 -82 117
0 7 30 -13 41 -28z m1124 -185 l40 -8 -36 -16 c-65 -28 -80 -31 -73 -14 3 9 1
16 -5 16 -6 0 -11 6 -11 14 0 8 -6 17 -12 20 -16 7 44 0 97 -12z m2515 -22 c0
-5 -7 -7 -15 -4 -8 4 -15 8 -15 10 0 2 7 4 15 4 8 0 15 -4 15 -10z m452 -208
c15 -9 37 -37 49 -62 22 -45 22 -46 4 -130 -16 -79 -30 -115 -73 -182 -15 -25
-163 -130 -189 -135 -6 -1 -10 14 -9 35 1 28 -3 37 -15 36 -14 -1 -17 18 -23
125 -7 119 -26 255 -41 294 -6 14 -1 17 26 18 19 0 63 6 99 14 73 15 131 11
172 -13z m178 -177 c0 -9 -57 -34 -64 -28 -17 17 -4 33 29 33 19 0 35 -2 35
-5z m10 -285 c113 -123 140 -218 95 -336 -18 -48 -45 -93 -56 -94 -3 0 -21 30
-40 66 -46 90 -82 128 -158 167 -56 28 -64 37 -66 61 0 16 10 49 22 72 13 24
35 76 49 116 42 117 42 117 69 61 14 -27 52 -78 85 -113z m242 115 c40 -14 79
-23 89 -20 10 3 26 -5 40 -20 13 -13 29 -25 34 -25 13 -1 76 -83 103 -135 67
-127 97 -211 82 -236 -5 -6 -2 -26 6 -44 7 -18 15 -45 18 -60 6 -32 -3 -31
-99 8 -33 13 -81 32 -107 41 -43 16 -47 20 -37 37 5 11 9 34 7 52 -3 27 -10
36 -54 57 -41 20 -55 33 -69 65 -9 22 -20 49 -25 60 -5 11 -12 31 -16 45 -4
14 -26 54 -49 90 -57 89 -57 89 -50 100 10 16 51 12 127 -15z m-662 -165 c-5
-22 -8 -27 -9 -13 -1 21 9 56 14 51 2 -2 0 -19 -5 -38z m620 -126 c0 -19 -16
-18 -24 2 -11 27 -7 37 9 24 8 -7 15 -19 15 -26z"/>
<path d="M3830 3914 c0 -3 29 -70 64 -147 71 -157 120 -302 162 -477 46 -192
57 -155 19 65 -8 44 -17 121 -20 170 -9 118 -30 244 -57 328 l-21 67 -73 0
c-41 0 -74 -3 -74 -6z"/>
<path d="M4091 3880 c46 -44 49 -45 49 -28 0 19 -52 68 -72 68 -14 0 -9 -9 23
-40z"/>
<path d="M4520 3883 c0 -21 -3 -61 -6 -90 -6 -46 -4 -54 20 -78 22 -22 33 -25
68 -22 48 4 55 17 57 102 1 57 -11 75 -50 75 -17 0 -35 9 -47 25 -28 35 -42
31 -42 -12z"/>
<path d="M6697 3878 c2 -24 8 -72 12 -108 8 -63 9 -62 10 43 1 85 -2 107 -13
107 -10 0 -12 -11 -9 -42z"/>
<path d="M5128 3743 c7 -3 16 -2 19 1 4 3 -2 6 -13 5 -11 0 -14 -3 -6 -6z"/>
<path d="M5040 3720 c0 -5 4 -10 9 -10 6 0 13 5 16 10 3 6 -1 10 -9 10 -9 0
-16 -4 -16 -10z"/>
<path d="M5020 3709 c0 -5 -4 -8 -9 -5 -10 7 -115 -84 -106 -92 2 -3 27 14 54
36 27 23 54 42 60 42 6 0 11 7 11 15 0 8 -2 15 -5 15 -3 0 -5 -5 -5 -11z"/>
<path d="M4855 3589 c-16 -10 -25 -19 -19 -19 7 0 22 9 35 20 30 24 23 24 -16
-1z"/>
<path d="M1955 3283 c-35 -47 -39 -59 -7 -23 17 19 31 38 32 43 0 11 -4 8 -25
-20z"/>
<path d="M4382 3079 c-30 -125 -29 -134 17 -179 l39 -39 16 43 c29 76 18 144
-26 158 -7 3 -15 28 -18 58 l-5 53 -23 -94z"/>
<path d="M4063 3034 c-7 -18 17 -38 31 -24 11 11 1 40 -14 40 -6 0 -13 -7 -17
-16z"/>
<path d="M2520 2925 c-7 -9 -8 -15 -2 -15 5 0 12 7 16 15 3 8 4 15 2 15 -2 0
-9 -7 -16 -15z"/>
<path d="M4042 2918 c-24 -24 -11 -88 17 -88 39 0 55 54 25 84 -19 19 -26 20
-42 4z"/>
<path d="M2497 2893 c-15 -15 -6 -158 12 -198 18 -40 72 -95 93 -95 6 0 -4 10
-23 23 -56 37 -79 96 -76 194 1 46 2 83 1 83 0 0 -4 -3 -7 -7z"/>
<path d="M1316 2838 c-29 -41 -15 -88 26 -88 33 0 52 72 26 98 -18 18 -35 15
-52 -10z"/>
<path d="M2432 2802 c-19 -51 -21 -62 -16 -77 9 -23 24 -7 24 26 0 17 5 39 10
49 6 11 6 21 1 24 -5 3 -13 -7 -19 -22z"/>
<path d="M2320 2758 c0 -53 32 -129 48 -113 4 3 12 30 18 58 9 46 8 55 -8 80
-11 15 -28 27 -39 27 -16 0 -19 -7 -19 -52z"/>
<path d="M1257 2707 c-27 -20 -31 -60 -9 -88 20 -23 20 -24 41 -5 43 39 13
128 -32 93z"/>
<path d="M4020 2680 c-23 -23 -25 -49 -6 -75 29 -40 80 22 58 70 -14 30 -26
31 -52 5z"/>
<path d="M2432 2600 c0 -19 2 -27 5 -17 2 9 2 25 0 35 -3 9 -5 1 -5 -18z"/>
<path d="M1174 2535 c-33 -51 11 -111 48 -66 21 27 24 61 6 79 -19 19 -36 14
-54 -13z"/>
<path d="M4006 2454 c-24 -23 -21 -81 5 -94 32 -18 69 11 69 53 0 53 -40 75
-74 41z"/>
<path d="M1132 2418 c-17 -17 -15 -73 3 -88 34 -28 68 27 46 76 -12 26 -30 31
-49 12z"/>
<path d="M1087 2283 c-11 -10 -8 -41 4 -49 16 -9 41 20 33 39 -6 17 -25 22
-37 10z"/>
<path d="M2447 2255 c-36 -34 -34 -41 3 -13 17 12 30 25 30 30 0 12 -3 10 -33
-17z"/>
<path d="M2866 2211 c-4 -7 -5 -15 -2 -18 9 -9 19 4 14 18 -4 11 -6 11 -12 0z"/>
<path d="M1062 2190 c0 -14 2 -19 5 -12 2 6 2 18 0 25 -3 6 -5 1 -5 -13z"/>
<path d="M2990 2191 c0 -12 5 -21 10 -21 6 0 10 6 10 14 0 8 -4 18 -10 21 -5
3 -10 -3 -10 -14z"/>
<path d="M1010 2121 c0 -6 5 -13 10 -16 6 -3 10 1 10 9 0 9 -4 16 -10 16 -5 0
-10 -4 -10 -9z"/>
<path d="M2595 2063 c34 -53 45 -67 45 -60 0 10 -51 87 -57 87 -3 0 3 -12 12
-27z"/>
<path d="M970 2030 c0 -11 2 -20 4 -20 2 0 6 9 9 20 3 11 1 20 -4 20 -5 0 -9
-9 -9 -20z"/>
<path d="M2715 1595 c-12 -41 -13 -59 -5 -75 19 -35 25 -22 27 55 1 41 0 75
-2 75 -3 0 -12 -25 -20 -55z"/>
<path d="M3290 1529 c33 -14 41 -29 23 -47 -13 -13 -16 -13 -24 -1 -8 12 -10
12 -8 -1 3 -28 -1 -41 -11 -35 -6 3 -7 -1 -4 -9 9 -23 53 -19 76 7 11 12 17
17 14 10 -9 -18 3 -39 23 -40 11 -1 22 6 26 15 9 23 -85 112 -117 111 l-23 0
25 -10z"/>
<path d="M3410 1422 c0 -5 10 -17 21 -28 22 -19 22 -19 10 3 -12 24 -31 39
-31 25z"/>
<path d="M347 1385 c-53 -20 -141 -80 -178 -122 -51 -59 -93 -132 -130 -228
l-34 -90 0 -220 0 -220 32 -75 c18 -41 50 -96 71 -122 51 -62 87 -178 78 -254
l-6 -54 121 0 c120 0 120 0 114 23 -13 41 -78 157 -100 179 l-23 22 49 22 c93
44 143 151 143 309 0 142 -39 242 -113 292 -96 65 -188 -21 -178 -168 6 -92
48 -150 98 -134 39 13 52 104 24 171 l-15 36 28 -7 c61 -15 85 -67 85 -185 0
-146 -56 -225 -159 -225 -40 0 -58 6 -87 28 -77 59 -134 242 -122 395 27 355
224 577 478 542 80 -12 205 -74 278 -138 56 -51 164 -182 205 -249 42 -70 94
-172 94 -186 0 -11 -24 -16 -93 -21 -51 -4 -100 -4 -107 -1 -8 3 -24 19 -35
35 -13 20 -23 26 -30 19 -6 -6 -10 -100 -10 -247 0 -251 10 -336 56 -458 l20
-54 64 0 64 0 10 36 c5 20 32 59 59 88 45 47 51 59 62 123 6 39 18 80 25 90
13 17 16 16 50 -19 37 -38 85 -53 153 -49 24 1 39 -5 59 -26 23 -25 24 -25 14
-5 -7 13 -25 31 -41 40 -20 12 -32 31 -45 71 -32 108 -106 243 -162 298 -29
28 -61 54 -71 57 -12 4 -23 24 -31 57 -17 64 -99 232 -151 309 -102 150 -258
276 -389 314 -66 19 -172 20 -224 1z m720 -815 c18 -10 47 -23 65 -28 19 -5
39 -19 49 -37 23 -39 23 -45 1 -45 -11 0 -27 -9 -36 -19 -10 -11 -25 -17 -34
-14 -10 4 -13 2 -8 -5 4 -7 4 -12 0 -12 -12 0 -44 32 -44 45 0 6 -11 17 -25
23 -13 6 -31 25 -40 41 -14 29 -14 32 5 51 25 25 27 25 67 0z m-146 -102 c17
-18 35 -32 39 -31 5 1 11 -4 14 -13 4 -10 2 -13 -7 -8 -6 5 3 -9 21 -30 31
-35 52 -75 52 -96 0 -16 -102 -112 -110 -103 -11 13 -40 156 -39 193 1 19 -2
54 -6 78 -4 23 -5 42 -1 42 3 0 20 -15 37 -32z m354 -138 c3 -6 -1 -7 -9 -4
-18 7 -21 14 -7 14 6 0 13 -4 16 -10z"/>
<path d="M2610 1288 c-13 -62 -25 -165 -18 -158 3 3 13 43 23 90 9 47 21 87
26 91 6 3 4 11 -5 18 -12 10 -16 4 -26 -41z"/>
<path d="M2940 1075 c0 -42 57 -46 67 -4 3 8 0 7 -7 -3 -15 -25 -50 -23 -50 1
0 11 6 22 13 24 7 3 5 6 -5 6 -13 1 -18 -7 -18 -24z"/>
<path d="M1580 607 c-6 -33 -8 -71 -4 -90 4 -17 6 -39 5 -47 -2 -11 2 -11 18
4 31 29 36 76 13 138 l-20 53 -12 -58z"/>
<path d="M2893 523 c-7 -2 -13 -15 -13 -28 0 -31 36 -43 58 -21 27 27 -8 65
-45 49z m45 -26 c4 -20 -25 -34 -40 -19 -15 15 -1 44 19 40 10 -2 19 -11 21
-21z"/>
<path d="M1551 39 c-6 -18 -9 -34 -7 -36 2 -2 9 10 15 28 6 18 9 34 7 36 -2 2
-9 -10 -15 -28z"/>
<path d="M1182 18 c2 -6 10 -14 16 -16 7 -2 10 2 6 12 -7 18 -28 22 -22 4z"/>
</g>
</svg>
